<svg width="95" height="23" viewBox="0 0 95 23" fill="none" xmlns="http://www.w3.org/2000/svg">
<path d="M24.128 7.544H27.072V17H28.976V7.544H31.936V5.8H24.128V7.544ZM33.5973 9.64H31.8853V17H33.5973V9.64ZM35.7893 11.48L36.6213 10.024C36.4613 9.82133 36.2639 9.68267 36.0293 9.608C35.7946 9.52267 35.5439 9.48 35.2773 9.48C34.9039 9.48 34.5413 9.61333 34.1893 9.88C33.8479 10.1467 33.5653 10.5093 33.3413 10.968C33.1279 11.416 33.0213 11.9333 33.0213 12.52L33.5973 12.856C33.5973 12.504 33.6346 12.2 33.7093 11.944C33.7946 11.6773 33.9279 11.4693 34.1093 11.32C34.2906 11.1707 34.5253 11.096 34.8133 11.096C35.0266 11.096 35.2026 11.128 35.3413 11.192C35.4799 11.256 35.6293 11.352 35.7893 11.48ZM38.8951 14.712C38.8951 14.4773 38.9485 14.28 39.0551 14.12C39.1725 13.96 39.3431 13.8373 39.5671 13.752C39.7911 13.656 40.0845 13.608 40.4471 13.608C40.8631 13.608 41.2578 13.6613 41.6311 13.768C42.0045 13.8747 42.3565 14.0453 42.6871 14.28V13.4C42.5911 13.2827 42.4258 13.1547 42.1911 13.016C41.9565 12.8667 41.6578 12.7387 41.2951 12.632C40.9431 12.5253 40.5218 12.472 40.0311 12.472C39.1138 12.472 38.4045 12.6853 37.9031 13.112C37.4018 13.528 37.1511 14.0933 37.1511 14.808C37.1511 15.3093 37.2685 15.736 37.5031 16.088C37.7378 16.44 38.0525 16.7067 38.4471 16.888C38.8418 17.0693 39.2685 17.16 39.7271 17.16C40.1538 17.16 40.5698 17.0853 40.9751 16.936C41.3911 16.776 41.7325 16.5413 41.9991 16.232C42.2765 15.912 42.4151 15.5173 42.4151 15.048L42.1591 14.088C42.1591 14.4507 42.0685 14.7707 41.8871 15.048C41.7165 15.3147 41.4871 15.5173 41.1991 15.656C40.9218 15.7947 40.6125 15.864 40.2711 15.864C40.0045 15.864 39.7645 15.8213 39.5511 15.736C39.3485 15.6507 39.1885 15.5227 39.0711 15.352C38.9538 15.1707 38.8951 14.9573 38.8951 14.712ZM38.3511 11.56C38.4578 11.4853 38.6178 11.3947 38.8311 11.288C39.0551 11.1707 39.3165 11.0747 39.6151 11C39.9245 10.9147 40.2498 10.872 40.5911 10.872C40.8151 10.872 41.0231 10.8933 41.2151 10.936C41.4071 10.9787 41.5725 11.048 41.7111 11.144C41.8498 11.24 41.9565 11.3627 42.0311 11.512C42.1165 11.6613 42.1591 11.8533 42.1591 12.088V17H43.8551V11.752C43.8551 11.2613 43.7218 10.8507 43.4551 10.52C43.1885 10.1787 42.8205 9.91733 42.3511 9.736C41.8925 9.55467 41.3591 9.464 40.7511 9.464C40.0685 9.464 39.4605 9.56 38.9271 9.752C38.4045 9.944 37.9778 10.1413 37.6471 10.344L38.3511 11.56ZM50.6056 12.52V17H52.3816V12.328C52.3816 11.4427 52.163 10.7493 51.7256 10.248C51.2883 9.736 50.6536 9.48 49.8216 9.48C49.3096 9.48 48.867 9.58667 48.4936 9.8C48.131 10.0133 47.8323 10.3387 47.5976 10.776V9.64H45.8696V17H47.5976V12.52C47.5976 12.1893 47.667 11.9013 47.8056 11.656C47.9443 11.4 48.1363 11.208 48.3816 11.08C48.627 10.9413 48.9096 10.872 49.2296 10.872C49.699 10.872 50.0456 11.0107 50.2696 11.288C50.4936 11.5653 50.6056 11.976 50.6056 12.52ZM54.9244 14.584L53.9164 15.592C54.1297 15.8693 54.391 16.136 54.7004 16.392C55.0204 16.6373 55.3884 16.84 55.8044 17C56.231 17.1493 56.695 17.224 57.1964 17.224C58.007 17.224 58.647 17.016 59.1164 16.6C59.5964 16.1733 59.8364 15.6133 59.8364 14.92C59.8364 14.472 59.7297 14.1093 59.5164 13.832C59.3137 13.5547 59.0417 13.32 58.7004 13.128C58.359 12.936 57.9857 12.76 57.5804 12.6C57.2817 12.4827 57.0097 12.3707 56.7644 12.264C56.5297 12.1573 56.3377 12.04 56.1884 11.912C56.0497 11.7733 55.9804 11.6187 55.9804 11.448C55.9804 11.2453 56.0604 11.0907 56.2204 10.984C56.3804 10.8773 56.583 10.824 56.8284 10.824C57.191 10.824 57.543 10.9147 57.8844 11.096C58.2257 11.2773 58.519 11.512 58.7644 11.8L59.7244 10.776C59.5217 10.5307 59.2764 10.312 58.9884 10.12C58.7004 9.928 58.375 9.77333 58.0124 9.656C57.6604 9.53867 57.2817 9.48 56.8764 9.48C56.4284 9.48 56.007 9.55467 55.6124 9.704C55.2284 9.84267 54.919 10.0613 54.6844 10.36C54.4604 10.6587 54.3484 11.032 54.3484 11.48C54.3484 11.9173 54.4497 12.28 54.6524 12.568C54.8657 12.856 55.1324 13.0907 55.4524 13.272C55.783 13.4427 56.1137 13.592 56.4444 13.72C56.775 13.8373 57.063 13.9547 57.3084 14.072C57.5537 14.1787 57.7457 14.312 57.8844 14.472C58.023 14.6213 58.0924 14.8027 58.0924 15.016C58.0924 15.2613 58.0017 15.4533 57.8204 15.592C57.6497 15.7307 57.4097 15.8 57.1004 15.8C56.855 15.8 56.6097 15.7573 56.3644 15.672C56.119 15.576 55.8737 15.4373 55.6284 15.256C55.3937 15.064 55.159 14.84 54.9244 14.584ZM84.7259 17.16C85.5792 17.16 86.3099 16.9947 86.9179 16.664C87.5259 16.3333 88.0219 15.8373 88.4059 15.176L86.9179 14.568C86.6832 14.9627 86.3899 15.256 86.0379 15.448C85.6859 15.64 85.2752 15.736 84.8059 15.736C84.3579 15.736 83.9739 15.64 83.6539 15.448C83.3445 15.256 83.1099 14.9787 82.9499 14.616C82.7899 14.2427 82.7099 13.7893 82.7099 13.256C82.7205 12.7227 82.8059 12.2747 82.9659 11.912C83.1259 11.5493 83.3605 11.272 83.6699 11.08C83.9792 10.888 84.3525 10.792 84.7899 10.792C85.1525 10.792 85.4672 10.872 85.7339 11.032C86.0112 11.192 86.2245 11.416 86.3739 11.704C86.5339 11.992 86.6139 12.3333 86.6139 12.728C86.6139 12.8027 86.5925 12.8987 86.5499 13.016C86.5179 13.1227 86.4859 13.208 86.4539 13.272L86.9819 12.536H81.9899V13.72H88.4539C88.4645 13.6773 88.4699 13.608 88.4699 13.512C88.4805 13.416 88.4859 13.3253 88.4859 13.24C88.4859 12.4507 88.3365 11.7787 88.0379 11.224C87.7499 10.6587 87.3339 10.2267 86.7899 9.928C86.2459 9.62933 85.5845 9.48 84.8059 9.48C84.0272 9.48 83.3499 9.64 82.7739 9.96C82.1979 10.2693 81.7499 10.712 81.4299 11.288C81.1205 11.864 80.9659 12.5413 80.9659 13.32C80.9659 14.088 81.1205 14.76 81.4299 15.336C81.7392 15.912 82.1765 16.36 82.7419 16.68C83.3179 17 83.9792 17.16 84.7259 17.16ZM91.8473 9.64H90.1353V17H91.8473V9.64ZM94.0393 11.48L94.8713 10.024C94.7113 9.82133 94.5139 9.68267 94.2793 9.608C94.0446 9.52267 93.7939 9.48 93.5273 9.48C93.1539 9.48 92.7913 9.61333 92.4393 9.88C92.0979 10.1467 91.8153 10.5093 91.5913 10.968C91.3779 11.416 91.2713 11.9333 91.2713 12.52L91.8473 12.856C91.8473 12.504 91.8846 12.2 91.9593 11.944C92.0446 11.6773 92.1779 11.4693 92.3593 11.32C92.5406 11.1707 92.7753 11.096 93.0633 11.096C93.2766 11.096 93.4526 11.128 93.5913 11.192C93.7299 11.256 93.8793 11.352 94.0393 11.48Z" fill="#282828"/>
<path d="M62.4576 14.712C62.4576 14.4773 62.511 14.28 62.6176 14.12C62.735 13.96 62.9056 13.8373 63.1296 13.752C63.3536 13.656 63.647 13.608 64.0096 13.608C64.4256 13.608 64.8203 13.6613 65.1936 13.768C65.567 13.8747 65.919 14.0453 66.2496 14.28V13.4C66.1536 13.2827 65.9883 13.1547 65.7536 13.016C65.519 12.8667 65.2203 12.7387 64.8576 12.632C64.5056 12.5253 64.0843 12.472 63.5936 12.472C62.6763 12.472 61.967 12.6853 61.4656 13.112C60.9643 13.528 60.7136 14.0933 60.7136 14.808C60.7136 15.3093 60.831 15.736 61.0656 16.088C61.3003 16.44 61.615 16.7067 62.0096 16.888C62.4043 17.0693 62.831 17.16 63.2896 17.16C63.7163 17.16 64.1323 17.0853 64.5376 16.936C64.9536 16.776 65.295 16.5413 65.5616 16.232C65.839 15.912 65.9776 15.5173 65.9776 15.048L65.7216 14.088C65.7216 14.4507 65.631 14.7707 65.4496 15.048C65.279 15.3147 65.0496 15.5173 64.7616 15.656C64.4843 15.7947 64.175 15.864 63.8336 15.864C63.567 15.864 63.327 15.8213 63.1136 15.736C62.911 15.6507 62.751 15.5227 62.6336 15.352C62.5163 15.1707 62.4576 14.9573 62.4576 14.712ZM61.9136 11.56C62.0203 11.4853 62.1803 11.3947 62.3936 11.288C62.6176 11.1707 62.879 11.0747 63.1776 11C63.487 10.9147 63.8123 10.872 64.1536 10.872C64.3776 10.872 64.5856 10.8933 64.7776 10.936C64.9696 10.9787 65.135 11.048 65.2736 11.144C65.4123 11.24 65.519 11.3627 65.5936 11.512C65.679 11.6613 65.7216 11.8533 65.7216 12.088V17H67.4176V11.752C67.4176 11.2613 67.2843 10.8507 67.0176 10.52C66.751 10.1787 66.383 9.91733 65.9136 9.736C65.455 9.55467 64.9216 9.464 64.3136 9.464C63.631 9.464 63.023 9.56 62.4896 9.752C61.967 9.944 61.5403 10.1413 61.2096 10.344L61.9136 11.56ZM70.5841 13.32C70.5841 12.8613 70.6855 12.456 70.8881 12.104C71.0908 11.752 71.3628 11.4747 71.7041 11.272C72.0561 11.0693 72.4455 10.968 72.8721 10.968C73.2135 10.968 73.5441 11.0213 73.8641 11.128C74.1841 11.2347 74.4668 11.384 74.7121 11.576C74.9681 11.7573 75.1548 11.9707 75.2721 12.216V10.312C75.0161 10.056 74.6695 9.85333 74.2321 9.704C73.7948 9.55467 73.3148 9.48 72.7921 9.48C72.0348 9.48 71.3521 9.64533 70.7441 9.976C70.1468 10.296 69.6721 10.744 69.3201 11.32C68.9788 11.896 68.8081 12.5627 68.8081 13.32C68.8081 14.0667 68.9788 14.7333 69.3201 15.32C69.6721 15.896 70.1468 16.3493 70.7441 16.68C71.3521 17 72.0348 17.16 72.7921 17.16C73.3148 17.16 73.7948 17.0853 74.2321 16.936C74.6695 16.7867 75.0161 16.584 75.2721 16.328V14.424C75.1548 14.6587 74.9735 14.872 74.7281 15.064C74.4828 15.256 74.2001 15.4053 73.8801 15.512C73.5601 15.6187 73.2241 15.672 72.8721 15.672C72.4455 15.672 72.0561 15.5707 71.7041 15.368C71.3628 15.1653 71.0908 14.8933 70.8881 14.552C70.6855 14.2 70.5841 13.7893 70.5841 13.32ZM76.1581 9.64V11.16H80.3341V9.64H76.1581ZM77.3901 7.08V17H79.1021V7.08H77.3901Z" fill="#076396"/>
<line x1="3.60049" y1="10.8059" x2="14.3974" y2="0.780151" stroke="black" stroke-width="0.6"/>
<line x1="8.99893" y1="16.9755" x2="19.7958" y2="6.94983" stroke="black" stroke-width="0.6"/>
<line x1="2.05807" y1="17.7467" x2="12.855" y2="7.72101" stroke="black" stroke-width="0.6"/>
<circle cx="14.9357" cy="5.75578" r="1.92802" fill="#076396"/>
<circle cx="7.01799" cy="18.7635" r="1.92802" fill="#076396"/>
<circle cx="1.92802" cy="12.5424" r="1.92802" fill="#076396"/>
<line x1="2.47434" y1="17.7544" x2="4.73655" y2="20.0166" stroke="black" stroke-width="0.6"/>
</svg>
